# File created by Blade
# Date/Time:  Tue Sep 23 19:06:47 2014
# Frame Rate: 120.000 fps
#------------------------------------------------------
:FULLY-SPECIFIED
:DEGREES
836
root -3.738629 32.023651 4.082193 42.536247 -2.722470 -5.222918
Spine -34.343530 4.124566 9.639937
Head -2.059384 -4.449039 -5.719541
LeftShoulder -18.196829 39.066012 26.317154
LeftArm 56.204058 -47.789100 -55.247417
LeftForeArm 100.419051 -0.000000 10.775685
LeftHand -16.930993 -0.000000 62.126029
LeftHandThumb1 -26.253704 0.000000 33.147579
RightShoulder -7.357276 -39.999113 -16.395325
RightArm 61.808140 18.180967 87.501076
RightForeArm 59.543318 0.000000 8.198429
RightHand 19.251411 -0.000000 -12.263761
RightHandThumb1 -24.326973 -0.000000 -32.862282
LeftUpLeg -25.182058 6.181391 8.903214
LeftLeg 11.885628 -0.000000 -0.000000
LeftFoot -9.519246 4.511999 1.183697
LeftToeBase -11.245272 -0.000000 0.000000
RightUpLeg -56.267773 -2.231414 6.081370
RightLeg 26.216852 -0.000000 -0.000000
RightFoot -4.570456 -8.098061 1.085243
RightToeBase -1.047037 -0.000000 0.000000
837
root -3.834500 32.066904 4.186131 42.421191 -2.178177 -5.040144
Spine -34.237878 3.701745 10.007859
Head -1.860085 -4.272445 -5.872005
LeftShoulder -18.204337 39.143486 26.154525
LeftArm 56.002725 -47.441323 -55.995952
LeftForeArm 101.223758 -0.000000 10.581694
LeftHand -17.856915 -0.000000 62.529686
LeftHandThumb1 -26.253704 0.000000 33.147579
RightShoulder -7.484103 -40.038906 -16.510438
RightArm 61.596925 17.941504 87.262890
RightForeArm 59.470769 -0.000000 8.474097
RightHand 19.012335 0.000000 -12.027179
RightHandThumb1 -24.326973 -0.000000 -32.862282
LeftUpLeg -25.135066 6.175907 9.085457
LeftLeg 11.955762 -0.000000 -0.000000
LeftFoot -9.242178 4.100482 0.756841
LeftToeBase -10.327747 -0.000000 0.000000
RightUpLeg -55.829713 -2.374161 6.107433
RightLeg 26.018715 -0.000000 -0.000000
RightFoot -4.583926 -8.340816 1.083338
RightToeBase -1.168758 -0.000000 0.000000
838
root -3.924006 32.113610 4.284205 42.349662 -1.602690 -4.862353
Spine -34.180500 3.259642 10.390138
Head -1.694799 -4.070225 -6.013317
LeftShoulder -18.234154 39.228659 26.038188
LeftArm 55.904423 -47.113276 -57.072096
LeftForeArm 101.230100 0.000000 10.735969
LeftHand -18.057736 -0.000000 62.691962
LeftHandThumb1 -26.253704 0.000000 33.147579
RightShoulder -7.609336 -40.013742 -16.586473
RightArm 61.466493 17.776754 87.137887
RightForeArm 59.283633 -0.000000 8.555343
RightHand 18.972199 -0.000000 -11.728547
RightHandThumb1 -24.326973 -0.000000 -32.862282
LeftUpLeg -25.178123 6.184162 9.272444
LeftLeg 12.059199 -0.000000 -0.000000
LeftFoot -8.984864 3.684345 0.510867
LeftToeBase -9.470168 -0.000000 0.000000
RightUpLeg -55.419101 -2.579486 6.181399
RightLeg 25.763284 -0.000000 -0.000000
RightFoot -4.559286 -8.510589 1.066920
RightToeBase -1.234429 -0.000000 0.000000
839
root -4.009030 32.163047 4.382254 42.239642 -1.002666 -4.702535
Spine -34.066726 2.793255 10.833206
Head -1.618622 -3.895693 -6.160310
LeftShoulder -18.301298 39.206324 25.880364
LeftArm 55.797397 -46.813205 -58.248836
LeftForeArm 101.177291 -0.000000 10.986823
LeftHand -18.056791 -0.000000 62.714646
LeftHandThumb1 -26.253704 0.000000 33.147579
RightShoulder -7.683546 -39.949659 -16.705303
RightArm 61.338232 17.691656 87.132861
RightForeArm 59.001487 -0.000000 8.639894
RightHand 18.838291 -0.000000 -11.488703
RightHandThumb1 -24.326973 -0.000000 -32.862282
LeftUpLeg -25.178413 6.090752 9.494738
LeftLeg 12.121062 -0.000000 -0.000000
LeftFoot -8.778112 3.389770 0.167206
LeftToeBase -8.158269 -0.000000 0.000000
RightUpLeg -54.926172 -2.801750 6.274436
RightLeg 25.419292 -0.000000 -0.000000
RightFoot -4.499399 -8.637399 1.026900
RightToeBase -1.267473 -0.000000 0.000000
840
root -4.087517 32.214434 4.473476 42.188451 -0.374335 -4.521756
Spine -34.026877 2.348851 11.234721
Head -1.525394 -3.744613 -6.336998
LeftShoulder -18.267388 39.245460 25.801949
LeftArm 55.736169 -46.594590 -59.609177
LeftForeArm 101.054181 0.000000 11.433568
LeftHand -17.965604 -0.000000 62.721597
LeftHandThumb1 -26.253704 0.000000 33.147579
RightShoulder -7.828113 -39.914745 -16.728095
RightArm 61.253875 17.587713 86.952068
RightForeArm 58.865056 -0.000000 8.576647
RightHand 18.687820 -0.000000 -11.285752
RightHandThumb1 -24.326973 -0.000000 -32.862282
LeftUpLeg -25.285124 6.011949 9.686526
LeftLeg 12.188029 -0.000000 -0.000000
LeftFoot -8.650126 3.211908 -0.217733
LeftToeBase -7.102465 -0.000000 0.000000
RightUpLeg -54.482399 -3.036749 6.339743
RightLeg 25.039928 -0.000000 -0.000000
RightFoot -4.418534 -8.778777 1.055519
RightToeBase -1.337945 -0.000000 0.000000
841
root -4.160271 32.265868 4.561072 42.144938 0.227781 -4.351013
Spine -33.991125 2.008493 11.566619
Head -1.459883 -3.702729 -6.486197
LeftShoulder -18.220068 39.335227 25.672814
LeftArm 55.954182 -46.450377 -61.117295
LeftForeArm 101.015320 -0.000000 11.849796
LeftHand -17.926641 0.000000 62.610031
LeftHandThumb1 -26.253704 0.000000 33.147579
RightShoulder -8.049240 -39.934207 -16.684233
RightArm 61.199101 17.496013 86.733944
RightForeArm 58.791803 0.000000 8.443320
RightHand 18.637841 0.000000 -11.021921
RightHandThumb1 -24.326973 -0.000000 -32.862282
LeftUpLeg -25.403144 5.978644 9.846043
LeftLeg 12.248666 -0.000000 -0.000000
LeftFoot -8.585825 3.069267 -0.213950
LeftToeBase -5.574876 -0.000000 0.000000
RightUpLeg -54.031140 -3.293545 6.450327
RightLeg 24.603503 -0.000000 -0.000000
RightFoot -4.317147 -8.948197 1.074779
RightToeBase -1.342793 -0.000000 0.000000
842
root -4.229399 32.316970 4.645333 42.133312 0.813183 -4.153107
Spine -33.998489 1.629369 11.862992
Head -1.381127 -3.654743 -6.594183
LeftShoulder -18.287862 39.503526 25.537269
LeftArm 56.154728 -46.177549 -62.569185
LeftForeArm 100.546550 -0.000000 12.389418
LeftHand -17.520879 -0.000000 62.238384
LeftHandThumb1 -26.253704 0.000000 33.147579
RightShoulder -8.144804 -39.884020 -16.682406
RightArm 61.054144 17.471591 86.482511
RightForeArm 58.766425 -0.000000 8.265269
RightHand 18.536550 -0.000000 -10.821167
RightHandThumb1 -24.326973 -0.000000 -32.862282
LeftUpLeg -25.553977 5.951725 9.944974
LeftLeg 12.286619 -0.000000 -0.000000
LeftFoot -8.500815 2.978265 -0.698991
LeftToeBase -4.447224 -0.000000 0.000000
RightUpLeg -53.607379 -3.514548 6.512124
RightLeg 24.148063 -0.000000 -0.000000
RightFoot -4.225132 -9.232198 1.105138
RightToeBase -1.326438 -0.000000 0.000000
